<svg id="Слой_1" data-name="Слой 1" xmlns="http://www.w3.org/2000/svg" viewBox="0 0 19.5 19.5">
  <defs>
    <style>
      .cls-1 {
        fill: #fff;
      }

      .cls-2 {
        fill: #1d1d1b;
      }
    </style>
  </defs>
  <g>
    <path class="cls-1" d="M8.57,19.39A9.57,9.57,0,0,1,.5,10a9.4,9.4,0,0,1,.64-3.42l.45-1L1.91,5l.7-1a9.48,9.48,0,0,1,14.78,0,7.54,7.54,0,0,1,.71,1l.28.5a8.51,8.51,0,0,1,.48,1A9.4,9.4,0,0,1,19.5,10a9.57,9.57,0,0,1-8,9.39L10,19.5ZM16.29,8a1.12,1.12,0,0,0-.56.15L13.28,9.55l0,.18a1.23,1.23,0,0,1,0,.27,3.3,3.3,0,0,1-1.58,2.83,1.1,1.1,0,0,0-.5.94v2.12A1.15,1.15,0,0,0,12.37,17a1.1,1.1,0,0,0,.4-.08,7.44,7.44,0,0,0,4.72-7,6.77,6.77,0,0,0-.07-1A1.15,1.15,0,0,0,16.29,8ZM3.71,8A1.15,1.15,0,0,0,2.58,9a6.77,6.77,0,0,0-.07,1,7.44,7.44,0,0,0,4.72,7,1.1,1.1,0,0,0,.4.08,1.15,1.15,0,0,0,1.12-1.15V13.77a1.1,1.1,0,0,0-.5-.94A3.3,3.3,0,0,1,6.67,10a1.23,1.23,0,0,1,0-.27l0-.18L4.27,8.14A1.12,1.12,0,0,0,3.71,8ZM10,6.67a3.45,3.45,0,0,1,1.58.39,1,1,0,0,0,.48.12A1.19,1.19,0,0,0,12.64,7L14.47,6a1.13,1.13,0,0,0,.57-.9,1.17,1.17,0,0,0-.45-1,7.49,7.49,0,0,0-9.18,0,1.17,1.17,0,0,0-.45,1,1.13,1.13,0,0,0,.57.9L7.36,7a1.19,1.19,0,0,0,.58.15,1,1,0,0,0,.48-.12A3.45,3.45,0,0,1,10,6.67Z" transform="translate(-0.25 -0.25)"/>
    <path class="cls-2" d="M10,.75a9.17,9.17,0,0,1,7.2,3.46,6.58,6.58,0,0,1,.67.94l.14.23.15.27a7.44,7.44,0,0,1,.46,1A8.92,8.92,0,0,1,19.25,10a9.33,9.33,0,0,1-7.79,9.14h-.05L10,19.25l0,.49-.1-.49-1.38-.11H8.54A9.33,9.33,0,0,1,.75,10a8.93,8.93,0,0,1,.62-3.31l.45-1h0L2,5.38l.11-.21v0h0l.67-1A9.19,9.19,0,0,1,10,.75M7.94,7.43a1.36,1.36,0,0,0,.6-.14,3.07,3.07,0,0,1,2.92,0,1.36,1.36,0,0,0,.6.14,1.34,1.34,0,0,0,.7-.19l1.84-1a1.36,1.36,0,0,0,.68-1.1,1.39,1.39,0,0,0-.54-1.21,7.74,7.74,0,0,0-9.48,0,1.39,1.39,0,0,0-.54,1.21,1.36,1.36,0,0,0,.68,1.1l1.84,1a1.34,1.34,0,0,0,.7.19m4.43,9.85a1.37,1.37,0,0,0,.49-.09A7.71,7.71,0,0,0,17.74,10,7.31,7.31,0,0,0,17.67,9a1.38,1.38,0,0,0-2.07-1L13.31,9.25,13,9.42l.07.35a1.77,1.77,0,0,1,0,.23,3.08,3.08,0,0,1-1.46,2.62A1.37,1.37,0,0,0,11,13.77v2.12a1.38,1.38,0,0,0,1.37,1.39m-4.74,0A1.38,1.38,0,0,0,9,15.89V13.77a1.37,1.37,0,0,0-.62-1.15A3.08,3.08,0,0,1,6.92,10a1.77,1.77,0,0,1,0-.23L7,9.42l-.31-.17L4.4,7.93A1.38,1.38,0,0,0,2.33,9,7.31,7.31,0,0,0,2.26,10a7.71,7.71,0,0,0,4.88,7.19,1.37,1.37,0,0,0,.49.09M10,.25A9.71,9.71,0,0,0,2.41,3.89l-.69,1,0,0-.13.23-.16.28,0,0,0,0-.45,1A9.52,9.52,0,0,0,.25,10,9.77,9.77,0,0,0,8.5,19.64h.05l1.38.1h.14l1.38-.1h.05A9.77,9.77,0,0,0,19.75,10a9.52,9.52,0,0,0-.66-3.51,8.73,8.73,0,0,0-.49-1.08l-.16-.28-.13-.23a9.2,9.2,0,0,0-.72-1A9.71,9.71,0,0,0,10,.25ZM7.94,6.93a.89.89,0,0,1-.45-.12L5.65,5.75a.88.88,0,0,1-.08-1.47,7.22,7.22,0,0,1,8.86,0,.88.88,0,0,1-.08,1.47L12.51,6.81a.89.89,0,0,1-.45.12.64.64,0,0,1-.36-.09,3.65,3.65,0,0,0-3.4,0,.64.64,0,0,1-.36.09Zm4.43,9.85a.89.89,0,0,1-.87-.89V13.77a.88.88,0,0,1,.38-.73,3.57,3.57,0,0,0,1.7-3,1.72,1.72,0,0,0,0-.32l2.29-1.32A.88.88,0,0,1,17.17,9a6.37,6.37,0,0,1,.07,1,7.24,7.24,0,0,1-4.57,6.73.79.79,0,0,1-.3.05Zm-4.74,0a.79.79,0,0,1-.3-.05A7.24,7.24,0,0,1,2.76,10a6.37,6.37,0,0,1,.07-1,.88.88,0,0,1,1.32-.66L6.44,9.68a1.72,1.72,0,0,0,0,.32,3.57,3.57,0,0,0,1.7,3,.88.88,0,0,1,.38.73v2.12a.89.89,0,0,1-.87.89Z" transform="translate(-0.25 -0.25)"/>
  </g>
</svg>
