<svg id="Слой_1" data-name="Слой 1" xmlns="http://www.w3.org/2000/svg" viewBox="0 0 11 11">
  <defs>
    <style>
      .cls-1 {
        fill: #fff;
      }

      .cls-2 {
        fill: #1d1d1b;
      }
    </style>
  </defs>
  <g>
    <path class="cls-1" d="M5.58,7.41A.46.46,0,0,0,5.12,7a.57.57,0,0,0-.18,0,.48.48,0,0,0-.27.42v0l0,.11a.3.3,0,0,0-.12.16c-.43.79-.66,1.22-1.16,1.48a2,2,0,0,1-1,.25,3,3,0,0,1-.65-.08L4.2,6.9a.47.47,0,0,0,0-.64A.27.27,0,0,0,4,6.16a.37.37,0,0,0-.15,0,.4.4,0,0,0-.31.13h0l0,.1h0a.52.52,0,0,0-.18,0,4.86,4.86,0,0,1-1.38.3,1.61,1.61,0,0,1-.49-.07,2.32,2.32,0,0,1-1.29-1H3.59A.46.46,0,0,0,4,5.12a.57.57,0,0,0,0-.18.48.48,0,0,0-.42-.27h0l-.11,0a.3.3,0,0,0-.16-.12c-.79-.43-1.22-.66-1.48-1.16a2.32,2.32,0,0,1-.17-1.66L4.1,4.2a.46.46,0,0,0,.64,0A.32.32,0,0,0,4.84,4a.41.41,0,0,0-.1-.46v0l-.1,0a.4.4,0,0,0,0-.2,3.14,3.14,0,0,1-.23-1.87,2.32,2.32,0,0,1,1-1.29V3.59A.46.46,0,0,0,5.88,4a.57.57,0,0,0,.18,0,.48.48,0,0,0,.27-.42v0l0-.11s.09-.09.13-.16c.42-.79.65-1.22,1.15-1.48a2,2,0,0,1,1-.25,3,3,0,0,1,.65.08L6.8,4.1a.48.48,0,0,0,0,.64.39.39,0,0,0,.19.1.37.37,0,0,0,.15,0,.41.41,0,0,0,.31-.14h0l0-.1h0a.54.54,0,0,0,.19,0,4.93,4.93,0,0,1,1.38-.3,1.61,1.61,0,0,1,.49.07,2.32,2.32,0,0,1,1.29,1H7.41A.46.46,0,0,0,7,5.88a.57.57,0,0,0,0,.18.48.48,0,0,0,.42.27h0l.11,0s.09.09.16.13c.79.42,1.22.65,1.48,1.15a2.27,2.27,0,0,1,.17,1.66L6.9,6.8a.44.44,0,0,0-.32-.13.45.45,0,0,0-.32.12.39.39,0,0,0-.1.19.41.41,0,0,0,.1.46h0l.09.06a.59.59,0,0,0,0,.2,3.14,3.14,0,0,1,.23,1.87,2.32,2.32,0,0,1-1,1.29Z"/>
    <path class="cls-2" d="M5.35.27V3.59a.53.53,0,0,0,.53.53.52.52,0,0,0,.21,0l0,0h0a.53.53,0,0,0,.28-.46.25.25,0,0,0,0-.08,1.14,1.14,0,0,1,.1-.19c.41-.76.63-1.18,1.12-1.44a2.07,2.07,0,0,1,1-.23,2.89,2.89,0,0,1,.5,0L8,2.77,6.74,4.05a.56.56,0,0,0,0,.75.48.48,0,0,0,.19.11A.53.53,0,0,0,7.5,4.8l0-.07h0l.17-.06a5.11,5.11,0,0,1,1.36-.29,1.89,1.89,0,0,1,.47.06,2.21,2.21,0,0,1,1.17.91H7.41a.53.53,0,0,0-.53.53.52.52,0,0,0,0,.21l0,0H7a.53.53,0,0,0,.46.28h.08l.19.1c.76.41,1.18.63,1.44,1.12A2.19,2.19,0,0,1,9.3,9.09L7,6.74a.56.56,0,0,0-.37-.15.61.61,0,0,0-.38.15.48.48,0,0,0-.11.19.53.53,0,0,0,.11.57l.07,0h0l.06.17a3.11,3.11,0,0,1,.23,1.83,2.21,2.21,0,0,1-.91,1.17V7.41a.53.53,0,0,0-.53-.53.52.52,0,0,0-.21,0l0,0h0a.53.53,0,0,0-.28.46.25.25,0,0,0,0,.08,1.14,1.14,0,0,1-.1.19c-.41.76-.63,1.18-1.12,1.44a2.07,2.07,0,0,1-1,.23,2.89,2.89,0,0,1-.5,0L4.26,7a.56.56,0,0,0,0-.75.48.48,0,0,0-.19-.11.53.53,0,0,0-.57.11l0,.07h0l-.17.06a5.11,5.11,0,0,1-1.36.29,1.89,1.89,0,0,1-.47-.06A2.21,2.21,0,0,1,.27,5.65H3.59a.53.53,0,0,0,.53-.53.52.52,0,0,0,0-.21l0,0h0a.53.53,0,0,0-.46-.28H3.51l-.19-.1c-.76-.41-1.18-.63-1.44-1.12A2.19,2.19,0,0,1,1.7,1.91L2.77,3,4.05,4.26a.55.55,0,0,0,.37.14.59.59,0,0,0,.38-.14.48.48,0,0,0,.11-.19A.53.53,0,0,0,4.8,3.5l-.07,0h0l-.06-.17a3.11,3.11,0,0,1-.23-1.83A2.21,2.21,0,0,1,5.35.27M5.5,0A2.46,2.46,0,0,0,4.3,1.4a3.16,3.16,0,0,0,.23,1.91c0,.08,0,.16.08.25l.08,0a.35.35,0,0,1,.08.4.29.29,0,0,1-.08.14.41.41,0,0,1-.54,0L1.61,1.61a2.49,2.49,0,0,0,.14,1.84c.28.53.73.77,1.51,1.19l.24.12a.15.15,0,0,1,.09,0A.38.38,0,0,1,3.93,5h0a.4.4,0,0,1,0,.15.38.38,0,0,1-.38.38H0A2.46,2.46,0,0,0,1.4,6.7a1.79,1.79,0,0,0,.51.07,5,5,0,0,0,1.4-.3l.25-.08a.22.22,0,0,1,0-.08.36.36,0,0,1,.26-.11l.14,0a.29.29,0,0,1,.14.08.4.4,0,0,1,0,.54L1.61,9.39a2.94,2.94,0,0,0,.8.11,2.17,2.17,0,0,0,1-.25C4,9,4.22,8.52,4.64,7.74l.12-.24a.15.15,0,0,1,0-.09A.38.38,0,0,1,5,7.07H5l.15,0a.38.38,0,0,1,.38.38V11A2.46,2.46,0,0,0,6.7,9.6a3.16,3.16,0,0,0-.23-1.91c0-.08,0-.16-.08-.25l-.08-.05A.35.35,0,0,1,6.23,7a.29.29,0,0,1,.08-.14.39.39,0,0,1,.54,0L9.39,9.39a2.49,2.49,0,0,0-.14-1.84C9,7,8.52,6.78,7.74,6.36L7.5,6.24a.15.15,0,0,1-.09,0A.38.38,0,0,1,7.07,6h0a.4.4,0,0,1,0-.15.38.38,0,0,1,.38-.38H11A2.46,2.46,0,0,0,9.6,4.3a1.79,1.79,0,0,0-.51-.07,5,5,0,0,0-1.4.3l-.25.08a.22.22,0,0,1-.05.08.36.36,0,0,1-.26.11L7,4.77a.29.29,0,0,1-.14-.08.4.4,0,0,1,0-.54L9.39,1.61a2.94,2.94,0,0,0-.8-.11,2.17,2.17,0,0,0-1,.25C7,2,6.78,2.48,6.36,3.26l-.12.24a.15.15,0,0,1,0,.09A.38.38,0,0,1,6,3.93H6a.4.4,0,0,1-.15,0,.38.38,0,0,1-.38-.38V0Z"/>
  </g>
</svg>
